<svg width="100" height="80" viewBox="0 0 100 80" fill="none" xmlns="http://www.w3.org/2000/svg">
<path d="M94.9516 33.2437C95.5291 31.9836 95.9989 30.6498 96.2779 29.2867C96.4961 28.1887 96.5617 27.095 96.4761 25.9832C96.3822 24.7859 95.9668 23.6454 95.4308 22.5738C94.9021 21.5295 94.1026 20.5945 93.2403 19.808C92.2558 18.8932 91.098 18.1785 89.8925 17.5865C88.26 16.794 86.5421 16.2295 84.7802 15.8012C83.089 15.3905 81.3241 15.0874 79.5831 14.9829C79.5968 14.9793 79.6054 14.9843 79.619 14.9806C79.6017 14.9706 79.5881 14.9743 79.5744 14.9779C79.4988 14.9689 79.4318 14.9649 79.3599 14.9695C79.3462 14.9732 79.3375 14.9682 79.3239 14.9719C79.2482 14.9628 79.1813 14.9588 79.1056 14.9498C79.1503 14.9525 79.1863 14.9502 79.2309 14.9529C78.9854 14.9381 78.7362 14.9097 78.4807 14.9123C78.3244 14.9029 78.1682 14.8935 78.012 14.8841C77.7355 14.8631 77.4329 14.827 77.1501 14.8369C77.0831 14.8329 77.0162 14.8289 76.9406 14.8198C76.9492 14.8248 76.9629 14.8212 76.9716 14.8262C76.9183 14.8185 76.8686 14.8245 76.824 14.8218C76.7707 14.8141 76.721 14.8201 76.6677 14.8124C75.6893 14.7671 74.7018 14.7975 73.7294 14.8018C72.7842 14.7989 71.8424 14.8902 70.9032 14.9368C69.1055 15.0305 67.3111 15.2185 65.5167 15.4065C63.6007 15.6051 61.6784 15.8347 59.7757 16.1103C55.943 16.6687 52.1189 17.2322 48.2908 17.8626C46.3085 18.1961 44.3298 18.5433 42.3411 18.9078C42.3275 18.9115 42.3138 18.9151 42.3002 18.9188C42.3002 18.9188 42.2915 18.9138 42.2865 18.9224C42.1686 18.9467 42.037 18.9747 41.9103 18.9939C41.924 18.9903 41.9377 18.9866 41.9377 18.9866C41.8197 19.0109 41.7018 19.0352 41.5975 19.0558C41.5615 19.0581 41.5206 19.0691 41.4846 19.0715C40.5547 19.2621 39.6212 19.439 38.6863 19.6382C38.7546 19.6199 38.8315 19.6066 38.9085 19.5933C38.8315 19.6066 38.7409 19.6236 38.659 19.6455C38.6726 19.6419 38.6863 19.6382 38.7086 19.6396C38.6453 19.6492 38.5907 19.6639 38.536 19.6785C38.5224 19.6822 38.5087 19.6858 38.4864 19.6845C34.7582 20.4419 31.0823 21.4488 27.399 22.4284C25.4779 22.9358 23.5678 23.4843 21.6627 24.024C19.8582 24.5295 18.0673 25.0313 16.2738 25.5778C15.5758 25.7867 14.9074 26.0244 14.3459 26.497C13.8554 26.9066 13.5737 27.4945 13.6601 28.1448C13.7442 28.7592 14.1584 29.3216 14.7404 29.5537C15.0425 29.6704 15.3063 29.7534 15.6375 29.7599C15.8743 29.7696 16.1126 29.757 16.3458 29.7531C16.6733 29.7459 17.0044 29.7523 17.3269 29.7538C17.4248 29.7641 17.5314 29.7795 17.638 29.7948C18.4412 29.9237 19.2579 29.5292 19.579 28.733C19.6467 28.5758 19.6833 28.4123 19.6977 28.2474C20.5137 28.0141 21.3333 27.7945 22.1443 27.5699C24.181 27.0022 26.2177 26.4345 28.2581 25.8804C30.0626 25.375 31.8817 24.9241 33.6972 24.4596C35.535 23.9965 37.3837 23.5743 39.2275 23.1608C39.3778 23.1205 39.5317 23.0939 39.6856 23.0673C39.6583 23.0746 39.6223 23.077 39.6 23.0756C40.4343 22.9106 41.2598 22.7407 42.0941 22.5757C42.1574 22.566 42.2207 22.5564 42.2804 22.5331L42.294 22.5295C42.294 22.5295 42.299 22.5208 42.3077 22.5258C42.4033 22.5002 42.5026 22.4882 42.5982 22.4626C42.5845 22.4662 42.5709 22.4699 42.5436 22.4772C42.5846 22.4663 42.6342 22.4603 42.6752 22.4493C42.7025 22.442 42.7385 22.4396 42.7658 22.4323C42.7435 22.431 42.7298 22.4347 42.7112 22.447C42.7335 22.4483 42.7471 22.4446 42.7658 22.4323C42.8204 22.4177 42.8701 22.4117 42.911 22.4007C42.9384 22.3934 42.9657 22.3861 42.988 22.3874C42.9607 22.3947 42.9384 22.3934 42.9197 22.4057L42.9334 22.4021C44.7968 22.0345 46.6835 21.7267 48.5566 21.4224C50.3217 21.1252 52.0904 20.8415 53.8579 20.5802C57.8272 19.9852 61.7879 19.3851 65.7738 18.9613C67.2344 18.8115 68.6986 18.6754 70.1578 18.5479C71.2049 18.4943 72.252 18.4407 73.3041 18.3784C73.8525 18.3486 74.4018 18.377 74.9525 18.3832C75.4003 18.3877 75.8544 18.3612 76.3058 18.3793C76.3145 18.3843 76.3281 18.3807 76.3281 18.3807C76.4037 18.3897 76.4707 18.3937 76.5426 18.389C76.5563 18.3854 76.5787 18.3868 76.5873 18.3918C76.6679 18.3921 76.7435 18.4011 76.8328 18.4065C76.7522 18.4061 76.6766 18.3971 76.6096 18.3931C76.8638 18.4128 77.1266 18.4376 77.3908 18.44C77.5557 18.4544 77.717 18.4551 77.8819 18.4695C78.1584 18.4905 78.4609 18.5266 78.7524 18.5217C78.8417 18.5271 78.9223 18.5274 79.0116 18.5328L79.0202 18.5378C79.0872 18.5418 79.1542 18.5458 79.2211 18.5498C80.3481 18.6578 81.4501 18.8091 82.5631 19.0013C83.7144 19.2272 84.858 19.5064 85.9703 19.8599C86.8397 20.154 87.6792 20.5001 88.5022 20.8945C88.428 20.8632 88.3586 20.8232 88.2843 20.7918C88.767 21.0358 89.2483 21.3022 89.701 21.5982C90.062 21.8528 90.4008 22.1061 90.7332 22.3904C90.9876 22.6297 91.2371 22.8776 91.4679 23.1379C91.664 23.3782 91.8465 23.6221 92.0153 23.8696C92.1422 24.0699 92.2554 24.2738 92.3636 24.4864C92.4668 24.7077 92.5563 24.9326 92.6409 25.1661C92.7081 25.3897 92.758 25.6033 92.8165 25.8218C92.8551 26.075 92.8937 26.3282 92.9099 26.5801C92.9262 26.832 92.9201 27.0825 92.914 27.333C92.8813 27.7298 92.8362 28.1079 92.7674 28.507C92.6496 29.051 92.5009 29.5886 92.3348 30.1163C92.022 30.998 91.6659 31.8548 91.2566 32.7038C90.8962 33.408 90.5149 34.0885 90.0939 34.7577C89.6519 35.4032 89.1803 36.02 88.6654 36.6118C87.9836 37.3729 87.2474 38.0679 86.4816 38.7343C86.5339 38.6837 86.5999 38.6294 86.6522 38.5788C85.7695 39.3277 84.8411 40.0157 83.8881 40.6664C82.5732 41.5238 81.2091 42.3066 79.8129 43.0248C78.836 43.4769 77.8641 43.9203 76.8871 44.3724C76.3614 44.6231 75.7826 44.7855 75.2459 44.9952C74.7191 45.1876 74.196 45.3937 73.6692 45.5861C72.5227 45.9518 71.3836 46.3449 70.2261 46.6697C69.5791 46.8504 68.932 47.0311 68.29 47.2031C67.6976 47.3691 67.1039 47.5575 66.5042 47.6962C65.2364 47.992 63.9883 48.3337 62.7133 48.6022C61.4383 48.8706 60.1682 49.1304 58.9069 49.3952C57.0821 49.7158 55.261 50.05 53.4339 50.3346C51.3586 50.6491 49.2797 50.9499 47.1971 51.2371C43.3384 51.7805 39.4581 52.1614 35.5851 52.5696C32.2122 52.9317 28.8333 53.2441 25.4481 53.5875C22.0492 53.9345 18.6516 54.2593 15.2408 54.507C15.3127 54.5024 15.3897 54.4891 15.4703 54.4894C14.0311 54.5823 12.6155 54.6541 11.189 54.685C11.0471 54.5107 10.9103 54.3277 10.7871 54.1411C10.7255 54.0478 10.6688 53.9459 10.6209 53.8489C10.5853 53.7706 10.5583 53.6973 10.5227 53.619C10.5203 53.583 10.5044 53.5507 10.502 53.5147C10.4947 53.4874 10.4961 53.4651 10.4974 53.4427C10.4988 53.4204 10.4951 53.4068 10.4965 53.3845C10.4965 53.3845 10.5015 53.3758 10.4978 53.3621C10.4978 53.3621 10.4978 53.3621 10.5028 53.3535C10.5078 53.3448 10.5128 53.3362 10.5178 53.3275C10.5378 53.2929 10.5578 53.2582 10.5778 53.2236C10.6028 53.1803 10.6364 53.142 10.6651 53.1123C10.9094 52.8492 11.166 52.6048 11.4449 52.3617C12.8815 51.1934 14.4686 50.2045 16.0137 49.1682C17.4606 48.2022 18.9161 47.2412 20.2927 46.1769C21.7489 45.0547 23.1878 43.9225 24.6143 42.7715C25.2168 42.288 25.8033 41.7722 26.3972 41.2836C26.7607 40.9739 27.1293 40.6555 27.4928 40.3458C28.0643 39.8559 28.6915 39.4097 29.0505 38.7279C29.4195 38.0287 29.3452 37.1775 28.7797 36.597C28.2302 36.0488 27.3167 35.8909 26.6426 36.2985C25.8056 36.8083 25.0338 37.425 24.2461 38.0094C23.3887 38.6344 22.535 39.2731 21.6776 39.8982C20.1121 41.0497 18.5465 42.2013 16.9724 43.3478C15.4305 44.4783 13.8814 45.5816 12.3272 46.6934C11.5595 47.2432 10.7991 47.8203 10.035 48.3837C8.47814 49.5403 6.96555 50.7801 5.72342 52.2915C5.0612 53.0985 4.51489 54.0648 4.41094 55.1249C4.32101 56.1006 4.76043 57.1395 5.63512 57.6445C6.3799 58.0745 7.23675 58.1305 8.07493 58.1987C8.60562 58.2395 9.15131 58.2543 9.68834 58.2642C10.422 58.9534 11.2067 59.6142 12.0264 60.2145C12.8251 60.7911 13.6175 61.3987 14.4498 61.937C16.0489 62.9872 17.6581 64.0202 19.3122 64.9752C22.7157 66.9402 26.1291 68.8879 29.6026 70.7316C30.6582 71.2833 31.7224 71.84 32.793 72.3657C34.0158 72.9678 35.2722 73.5315 36.45 74.2115C37.2814 74.6915 38.3829 74.4037 38.8679 73.5637C39.3479 72.7323 39.0601 71.6308 38.22 71.1458C37.3713 70.6558 36.464 70.2474 35.5853 69.8094C34.7066 69.3713 33.8279 68.9333 32.9541 68.4866C31.276 67.6332 29.6366 66.7329 27.9884 65.8275C26.3663 64.9371 24.7455 64.0245 23.1433 63.0995C22.3206 62.6245 21.4965 62.1718 20.6838 61.6794C19.8711 61.1871 19.0347 60.7158 18.2283 60.1925C17.5258 59.7292 16.8184 59.2745 16.1159 58.8112C15.7722 58.5666 15.4334 58.3133 15.0984 58.0736C15.2063 58.0667 15.3143 58.0597 15.4222 58.0528C19.3218 57.7985 23.2085 57.3866 27.1024 57.0021C34.8147 56.224 42.5293 55.4819 50.2057 54.4059C53.9961 53.8808 57.7609 53.26 61.5041 52.4766C63.4868 52.0625 65.4498 51.6024 67.4179 51.1336C68.4447 50.8951 69.4546 50.5659 70.4618 50.2814C71.3001 50.0495 72.1087 49.7889 72.9397 49.5296C73.8029 49.2544 74.6699 48.9928 75.5222 48.6766C76.1409 48.4449 76.7596 48.2132 77.3834 47.9729C77.6952 47.8527 78.0194 47.7512 78.3326 47.6087C79.3096 47.1566 80.2728 46.7082 81.2534 46.2698C82.29 45.7944 83.2787 45.222 84.25 44.6396C85.4675 43.9108 86.6445 43.1123 87.7758 42.2528C89.8418 40.6743 91.697 38.8009 93.1183 36.6193C93.3106 36.3261 93.4992 36.0194 93.6742 35.7163C94.1729 34.8725 94.5709 34.0631 94.9516 33.2437Z" fill="#9EF300"/>
</svg>
