<svg width="24" height="25" viewBox="0 0 24 25" fill="none" xmlns="http://www.w3.org/2000/svg">
<path d="M19.545 24H4.45596C3.65186 24 3 23.2964 3 22.4286V3.57143C3 2.70355 3.65186 2 4.45596 2H14.2506L21.001 9.28571V22.4286C21.001 23.2964 20.3491 24 19.545 24Z" fill="url(#paint0_linear_7527_2999)"/>
<path opacity="0.12" fill-rule="evenodd" clip-rule="evenodd" d="M16.1698 11.9287H7.83203V11.0464H16.1698V11.9287ZM16.1698 14.0716H7.83203V13.1892H16.1698V14.0716ZM7.83203 16.2144H16.1698V15.332H7.83203V16.2144ZM16.1698 18.3575H7.83203V17.4751H16.1698V18.3575ZM7.83203 20.5003H16.1698V19.6179H7.83203V20.5003Z" fill="white"/>
<mask id="path-3-outside-1_7527_2999" maskUnits="userSpaceOnUse" x="5.99902" y="12" width="13" height="6" fill="black">
<rect fill="white" x="5.99902" y="12" width="13" height="6"/>
<path d="M6.82388 17.029C6.7503 17.029 6.68834 17.0039 6.63799 16.9535C6.58765 16.9032 6.56248 16.8412 6.56248 16.7676V13.2126C6.56248 13.1391 6.58765 13.0771 6.63799 13.0268C6.68834 12.9725 6.7503 12.9454 6.82388 12.9454H8.14829C8.4426 12.9454 8.68851 12.9842 8.88601 13.0616C9.08738 13.1352 9.24616 13.2359 9.36233 13.3637C9.48238 13.4876 9.56758 13.6251 9.61792 13.7761C9.67214 13.9271 9.69924 14.0801 9.69924 14.235C9.69924 14.3899 9.67214 14.5429 9.61792 14.6939C9.56758 14.8449 9.48238 14.9843 9.36233 15.1121C9.24616 15.2361 9.08738 15.3367 8.88601 15.4142C8.68851 15.4878 8.4426 15.5246 8.14829 15.5246H7.09108V16.7676C7.09108 16.8412 7.06397 16.9032 7.00976 16.9535C6.95942 17.0039 6.89745 17.029 6.82388 17.029ZM7.09108 15.025H8.09601C8.38645 15.025 8.60912 14.9863 8.76402 14.9088C8.91893 14.8275 9.02542 14.7268 9.08351 14.6068C9.1416 14.4828 9.17064 14.3589 9.17064 14.235C9.17064 14.1072 9.1416 13.9833 9.08351 13.8632C9.02542 13.7432 8.91893 13.6444 8.76402 13.567C8.60912 13.4857 8.38645 13.445 8.09601 13.445H7.09108V15.025ZM11.1333 17C11.0597 17 10.9978 16.9748 10.9474 16.9245C10.8971 16.8741 10.8719 16.8122 10.8719 16.7386V13.2126C10.8719 13.1391 10.8971 13.0771 10.9474 13.0268C10.9978 12.9725 11.0597 12.9454 11.1333 12.9454H12.3009C12.6494 12.9454 12.9515 13.0055 13.207 13.1255C13.4626 13.2417 13.6756 13.3985 13.846 13.596C14.0164 13.7897 14.1423 14.0065 14.2236 14.2466C14.3088 14.4867 14.3514 14.7288 14.3514 14.9727C14.3514 15.2167 14.3088 15.4587 14.2236 15.6988C14.1423 15.9389 14.0164 16.1577 13.846 16.3552C13.6756 16.5488 13.4626 16.7057 13.207 16.8257C12.9515 16.9419 12.6494 17 12.3009 17H11.1333ZM11.4005 16.5063H12.237C12.5623 16.5063 12.843 16.4424 13.0793 16.3146C13.3194 16.1829 13.5033 16.0028 13.6311 15.7743C13.7628 15.542 13.8286 15.2748 13.8286 14.9727C13.8286 14.6707 13.7628 14.4054 13.6311 14.1769C13.5033 13.9446 13.3194 13.7645 13.0793 13.6367C12.843 13.505 12.5623 13.4392 12.237 13.4392H11.4005V16.5063ZM15.9022 17.029C15.8286 17.029 15.7667 17.0039 15.7163 16.9535C15.666 16.9032 15.6408 16.8412 15.6408 16.7676V13.2126C15.6408 13.1391 15.666 13.0771 15.7163 13.0268C15.7667 12.9725 15.8286 12.9454 15.9022 12.9454H18.1618C18.2315 12.9454 18.2896 12.9706 18.3361 13.021C18.3864 13.0674 18.4116 13.1255 18.4116 13.1952C18.4116 13.2649 18.3864 13.323 18.3361 13.3695C18.2896 13.416 18.2315 13.4392 18.1618 13.4392H16.1694V14.7229H17.9585C18.0282 14.7229 18.0863 14.7481 18.1328 14.7985C18.1831 14.8449 18.2083 14.903 18.2083 14.9727C18.2083 15.0424 18.1831 15.1005 18.1328 15.147C18.0863 15.1935 18.0282 15.2167 17.9585 15.2167H16.1694V16.7676C16.1694 16.8412 16.1423 16.9032 16.0881 16.9535C16.0377 17.0039 15.9758 17.029 15.9022 17.029Z"/>
</mask>
<path d="M6.82388 17.029C6.7503 17.029 6.68834 17.0039 6.63799 16.9535C6.58765 16.9032 6.56248 16.8412 6.56248 16.7676V13.2126C6.56248 13.1391 6.58765 13.0771 6.63799 13.0268C6.68834 12.9725 6.7503 12.9454 6.82388 12.9454H8.14829C8.4426 12.9454 8.68851 12.9842 8.88601 13.0616C9.08738 13.1352 9.24616 13.2359 9.36233 13.3637C9.48238 13.4876 9.56758 13.6251 9.61792 13.7761C9.67214 13.9271 9.69924 14.0801 9.69924 14.235C9.69924 14.3899 9.67214 14.5429 9.61792 14.6939C9.56758 14.8449 9.48238 14.9843 9.36233 15.1121C9.24616 15.2361 9.08738 15.3367 8.88601 15.4142C8.68851 15.4878 8.4426 15.5246 8.14829 15.5246H7.09108V16.7676C7.09108 16.8412 7.06397 16.9032 7.00976 16.9535C6.95942 17.0039 6.89745 17.029 6.82388 17.029ZM7.09108 15.025H8.09601C8.38645 15.025 8.60912 14.9863 8.76402 14.9088C8.91893 14.8275 9.02542 14.7268 9.08351 14.6068C9.1416 14.4828 9.17064 14.3589 9.17064 14.235C9.17064 14.1072 9.1416 13.9833 9.08351 13.8632C9.02542 13.7432 8.91893 13.6444 8.76402 13.567C8.60912 13.4857 8.38645 13.445 8.09601 13.445H7.09108V15.025ZM11.1333 17C11.0597 17 10.9978 16.9748 10.9474 16.9245C10.8971 16.8741 10.8719 16.8122 10.8719 16.7386V13.2126C10.8719 13.1391 10.8971 13.0771 10.9474 13.0268C10.9978 12.9725 11.0597 12.9454 11.1333 12.9454H12.3009C12.6494 12.9454 12.9515 13.0055 13.207 13.1255C13.4626 13.2417 13.6756 13.3985 13.846 13.596C14.0164 13.7897 14.1423 14.0065 14.2236 14.2466C14.3088 14.4867 14.3514 14.7288 14.3514 14.9727C14.3514 15.2167 14.3088 15.4587 14.2236 15.6988C14.1423 15.9389 14.0164 16.1577 13.846 16.3552C13.6756 16.5488 13.4626 16.7057 13.207 16.8257C12.9515 16.9419 12.6494 17 12.3009 17H11.1333ZM11.4005 16.5063H12.237C12.5623 16.5063 12.843 16.4424 13.0793 16.3146C13.3194 16.1829 13.5033 16.0028 13.6311 15.7743C13.7628 15.542 13.8286 15.2748 13.8286 14.9727C13.8286 14.6707 13.7628 14.4054 13.6311 14.1769C13.5033 13.9446 13.3194 13.7645 13.0793 13.6367C12.843 13.505 12.5623 13.4392 12.237 13.4392H11.4005V16.5063ZM15.9022 17.029C15.8286 17.029 15.7667 17.0039 15.7163 16.9535C15.666 16.9032 15.6408 16.8412 15.6408 16.7676V13.2126C15.6408 13.1391 15.666 13.0771 15.7163 13.0268C15.7667 12.9725 15.8286 12.9454 15.9022 12.9454H18.1618C18.2315 12.9454 18.2896 12.9706 18.3361 13.021C18.3864 13.0674 18.4116 13.1255 18.4116 13.1952C18.4116 13.2649 18.3864 13.323 18.3361 13.3695C18.2896 13.416 18.2315 13.4392 18.1618 13.4392H16.1694V14.7229H17.9585C18.0282 14.7229 18.0863 14.7481 18.1328 14.7985C18.1831 14.8449 18.2083 14.903 18.2083 14.9727C18.2083 15.0424 18.1831 15.1005 18.1328 15.147C18.0863 15.1935 18.0282 15.2167 17.9585 15.2167H16.1694V16.7676C16.1694 16.8412 16.1423 16.9032 16.0881 16.9535C16.0377 17.0039 15.9758 17.029 15.9022 17.029Z" fill="white"/>
<path d="M6.63799 16.9535L6.74198 16.8495L6.63799 16.9535ZM6.63799 13.0268L6.74205 13.1308L6.74576 13.1268L6.63799 13.0268ZM8.88601 13.0616L8.8323 13.1986L8.83554 13.1997L8.88601 13.0616ZM9.36233 13.3637L9.25346 13.4626L9.25671 13.466L9.36233 13.3637ZM9.61792 13.7761L9.47837 13.8226L9.47951 13.8258L9.61792 13.7761ZM9.61792 14.6939L9.47947 14.6442L9.47841 14.6474L9.61792 14.6939ZM9.36233 15.1121L9.25515 15.0114L9.25505 15.0116L9.36233 15.1121ZM8.88601 15.4142L8.93735 15.552L8.9388 15.5514L8.88601 15.4142ZM7.09108 15.5246V15.3775H6.94402V15.5246H7.09108ZM7.00976 16.9535L6.90962 16.8457L6.90577 16.8495L7.00976 16.9535ZM7.09108 15.025H6.94402V15.1721H7.09108V15.025ZM8.76402 14.9088L8.8298 15.0404L8.83238 15.039L8.76402 14.9088ZM9.08351 14.6068L9.2159 14.6708L9.21666 14.6692L9.08351 14.6068ZM8.76402 13.567L8.69565 13.6972L8.69826 13.6985L8.76402 13.567ZM7.09108 13.445V13.2979H6.94402V13.445H7.09108ZM6.82388 16.882C6.78784 16.882 6.76373 16.8713 6.74198 16.8495L6.53401 17.0575C6.61294 17.1365 6.71275 17.1761 6.82388 17.1761V16.882ZM6.74198 16.8495C6.72023 16.8278 6.70954 16.8037 6.70954 16.7676H6.41542C6.41542 16.8788 6.45507 16.9786 6.53401 17.0575L6.74198 16.8495ZM6.70954 16.7676V13.2126H6.41542V16.7676H6.70954ZM6.70954 13.2126C6.70954 13.1766 6.72023 13.1525 6.74198 13.1308L6.53401 12.9228C6.45507 13.0017 6.41542 13.1015 6.41542 13.2126H6.70954ZM6.74576 13.1268C6.76845 13.1024 6.79145 13.0925 6.82388 13.0925V12.7984C6.70915 12.7984 6.60822 12.8427 6.53023 12.9267L6.74576 13.1268ZM6.82388 13.0925H8.14829V12.7984H6.82388V13.0925ZM8.14829 13.0925C8.43084 13.0925 8.65716 13.1298 8.83232 13.1985L8.9397 12.9247C8.71986 12.8385 8.45436 12.7984 8.14829 12.7984V13.0925ZM8.83554 13.1997C9.01988 13.2671 9.15674 13.3561 9.25352 13.4626L9.47115 13.2648C9.33557 13.1156 9.15489 13.0033 8.93648 12.9235L8.83554 13.1997ZM9.25671 13.466C9.36273 13.5754 9.43561 13.6942 9.47841 13.8226L9.75743 13.7296C9.69955 13.5559 9.60204 13.3998 9.46796 13.2614L9.25671 13.466ZM9.47951 13.8258C9.52821 13.9615 9.55219 14.0976 9.55219 14.235H9.8463C9.8463 14.0626 9.81606 13.8928 9.75633 13.7264L9.47951 13.8258ZM9.55219 14.235C9.55219 14.3724 9.52821 14.5085 9.47951 14.6442L9.75633 14.7436C9.81606 14.5772 9.8463 14.4074 9.8463 14.235H9.55219ZM9.47841 14.6474C9.43545 14.7763 9.36212 14.8976 9.25515 15.0114L9.46952 15.2128C9.60264 15.0711 9.6997 14.9136 9.75743 14.7404L9.47841 14.6474ZM9.25505 15.0116C9.15756 15.1155 9.01931 15.2054 8.83322 15.2769L8.9388 15.5514C9.15545 15.4681 9.33475 15.3566 9.46962 15.2127L9.25505 15.0116ZM8.83467 15.2764C8.6587 15.3419 8.4315 15.3775 8.14829 15.3775V15.6716C8.4537 15.6716 8.71832 15.6336 8.93735 15.552L8.83467 15.2764ZM8.14829 15.3775H7.09108V15.6716H8.14829V15.3775ZM6.94402 15.5246V16.7676H7.23814V15.5246H6.94402ZM6.94402 16.7676C6.94402 16.8001 6.93413 16.8231 6.90969 16.8458L7.10983 17.0613C7.19382 16.9833 7.23814 16.8824 7.23814 16.7676H6.94402ZM6.90577 16.8495C6.88402 16.8713 6.85991 16.882 6.82388 16.882V17.1761C6.935 17.1761 7.03481 17.1365 7.11374 17.0575L6.90577 16.8495ZM7.09108 15.1721H8.09601V14.8779H7.09108V15.1721ZM8.09601 15.1721C8.39576 15.1721 8.64509 15.1327 8.82979 15.0404L8.69826 14.7773C8.57316 14.8398 8.37714 14.8779 8.09601 14.8779V15.1721ZM8.83238 15.039C9.00649 14.9476 9.14036 14.8269 9.21588 14.6708L8.95113 14.5427C8.91048 14.6267 8.83136 14.7074 8.69567 14.7786L8.83238 15.039ZM9.21666 14.6692C9.28294 14.5278 9.3177 14.3827 9.3177 14.235H9.02358C9.02358 14.3352 9.00025 14.4379 8.95035 14.5443L9.21666 14.6692ZM9.3177 14.235C9.3177 14.084 9.2832 13.9383 9.21588 13.7992L8.95113 13.9273C8.99999 14.0283 9.02358 14.1304 9.02358 14.235H9.3177ZM9.21588 13.7992C9.13992 13.6422 9.00502 13.5231 8.82979 13.4355L8.69826 13.6985C8.83283 13.7658 8.91092 13.8442 8.95113 13.9273L9.21588 13.7992ZM8.83238 13.4368C8.64683 13.3394 8.3964 13.2979 8.09601 13.2979V13.5921C8.3765 13.5921 8.57141 13.632 8.69567 13.6972L8.83238 13.4368ZM8.09601 13.2979H7.09108V13.5921H8.09601V13.2979ZM6.94402 13.445V15.025H7.23814V13.445H6.94402ZM10.9474 16.9245L11.0514 16.8205H11.0514L10.9474 16.9245ZM10.9474 13.0268L11.0515 13.1308L11.0552 13.1268L10.9474 13.0268ZM13.207 13.1255L13.1445 13.2586L13.1462 13.2594L13.207 13.1255ZM13.846 13.596L13.7347 13.6921L13.7356 13.6932L13.846 13.596ZM14.2236 14.2466L14.0843 14.2938L14.085 14.2958L14.2236 14.2466ZM14.2236 15.6988L14.085 15.6496L14.0843 15.6516L14.2236 15.6988ZM13.846 16.3552L13.9564 16.4524L13.9574 16.4513L13.846 16.3552ZM13.207 16.8257L13.2679 16.9596L13.2696 16.9588L13.207 16.8257ZM11.4005 16.5062H11.2534V16.6533H11.4005V16.5062ZM13.0793 16.3146L13.1492 16.4439L13.15 16.4435L13.0793 16.3146ZM13.6311 15.7743L13.5031 15.7018L13.5027 15.7026L13.6311 15.7743ZM13.6311 14.1769L13.5022 14.2478L13.5037 14.2503L13.6311 14.1769ZM13.0793 13.6367L13.0076 13.7652L13.0102 13.7665L13.0793 13.6367ZM11.4005 13.4392V13.2921H11.2534V13.4392H11.4005ZM11.1333 16.8529C11.0973 16.8529 11.0732 16.8422 11.0514 16.8205L10.8434 17.0285C10.9224 17.1074 11.0222 17.1471 11.1333 17.1471V16.8529ZM11.0514 16.8205C11.0297 16.7987 11.019 16.7746 11.019 16.7386H10.7248C10.7248 16.8497 10.7645 16.9495 10.8434 17.0285L11.0514 16.8205ZM11.019 16.7386V13.2126H10.7248V16.7386H11.019ZM11.019 13.2126C11.019 13.1766 11.0297 13.1525 11.0514 13.1308L10.8434 12.9228C10.7645 13.0017 10.7248 13.1015 10.7248 13.2126H11.019ZM11.0552 13.1268C11.0779 13.1024 11.1009 13.0925 11.1333 13.0925V12.7984C11.0186 12.7984 10.9176 12.8427 10.8397 12.9267L11.0552 13.1268ZM11.1333 13.0925H12.3009V12.7984H11.1333V13.0925ZM12.3009 13.0925C12.6327 13.0925 12.9125 13.1497 13.1445 13.2586L13.2696 12.9924C12.9904 12.8613 12.6661 12.7984 12.3009 12.7984V13.0925ZM13.1462 13.2594C13.3839 13.3674 13.5792 13.5119 13.7347 13.6921L13.9574 13.5C13.772 13.2852 13.5414 13.1159 13.2679 12.9916L13.1462 13.2594ZM13.7356 13.6932C13.8934 13.8725 14.0093 14.0724 14.0843 14.2938L14.3629 14.1994C14.2752 13.9406 14.1394 13.7068 13.9564 13.4989L13.7356 13.6932ZM14.085 14.2958C14.1648 14.5208 14.2043 14.7462 14.2043 14.9727H14.4984C14.4984 14.7113 14.4527 14.4526 14.3622 14.1974L14.085 14.2958ZM14.2043 14.9727C14.2043 15.1992 14.1648 15.4246 14.085 15.6496L14.3622 15.748C14.4527 15.4928 14.4984 15.2342 14.4984 14.9727H14.2043ZM14.0843 15.6516C14.0092 15.8733 13.8931 16.0756 13.7347 16.2592L13.9574 16.4513C14.1398 16.2399 14.2753 16.0046 14.3629 15.746L14.0843 15.6516ZM13.7356 16.2581C13.5798 16.4352 13.3836 16.5803 13.1445 16.6926L13.2696 16.9588C13.5417 16.831 13.7715 16.6625 13.9564 16.4524L13.7356 16.2581ZM13.1462 16.6919C12.9137 16.7975 12.6333 16.8529 12.3009 16.8529V17.1471C12.6655 17.1471 12.9892 17.0863 13.2679 16.9596L13.1462 16.6919ZM12.3009 16.8529H11.1333V17.1471H12.3009V16.8529ZM11.4005 16.6533H12.237V16.3592H11.4005V16.6533ZM12.237 16.6533C12.5816 16.6533 12.8874 16.5855 13.1492 16.4439L13.0093 16.1852C12.7986 16.2992 12.543 16.3592 12.237 16.3592V16.6533ZM13.15 16.4435C13.4131 16.2992 13.6175 16.0998 13.7594 15.8461L13.5027 15.7026C13.3891 15.9058 13.2256 16.0666 13.0085 16.1856L13.15 16.4435ZM13.759 15.8468C13.9048 15.5896 13.9756 15.2968 13.9756 14.9727H13.6815C13.6815 15.2528 13.6207 15.4944 13.5031 15.7018L13.759 15.8468ZM13.9756 14.9727C13.9756 14.6487 13.9048 14.3574 13.7585 14.1035L13.5037 14.2503C13.6207 14.4534 13.6815 14.6926 13.6815 14.9727H13.9756ZM13.7599 14.106C13.618 13.848 13.413 13.6477 13.1483 13.5069L13.0102 13.7665C13.2257 13.8812 13.3886 14.0411 13.5022 14.2478L13.7599 14.106ZM13.1508 13.5082C12.8887 13.3621 12.5823 13.2921 12.237 13.2921V13.5863C12.5423 13.5863 12.7974 13.6479 13.0077 13.7651L13.1508 13.5082ZM12.237 13.2921H11.4005V13.5863H12.237V13.2921ZM11.2534 13.4392V16.5062H11.5476V13.4392H11.2534ZM15.7163 16.9535L15.8203 16.8495L15.7163 16.9535ZM15.7163 13.0268L15.8204 13.1308L15.8241 13.1268L15.7163 13.0268ZM18.3361 13.021L18.2277 13.121L18.2364 13.129L18.3361 13.021ZM18.3361 13.3695L18.2363 13.2613L18.2321 13.2655L18.3361 13.3695ZM16.1694 13.4392V13.2921H16.0224V13.4392H16.1694ZM16.1694 14.7229H16.0224V14.87H16.1694V14.7229ZM18.1328 14.7985L18.0244 14.8985L18.033 14.9065L18.1328 14.7985ZM18.1328 15.147L18.033 15.0388L18.0288 15.043L18.1328 15.147ZM16.1694 15.2167V15.0696H16.0224V15.2167H16.1694ZM16.0881 16.9535L15.988 16.8457L15.9841 16.8495L16.0881 16.9535ZM15.9022 16.882C15.8662 16.882 15.8421 16.8713 15.8203 16.8495L15.6123 17.0575C15.6913 17.1365 15.7911 17.1761 15.9022 17.1761V16.882ZM15.8203 16.8495C15.7986 16.8278 15.7879 16.8037 15.7879 16.7676H15.4937C15.4937 16.8788 15.5334 16.9786 15.6123 17.0575L15.8203 16.8495ZM15.7879 16.7676V13.2126H15.4937V16.7676H15.7879ZM15.7879 13.2126C15.7879 13.1766 15.7986 13.1525 15.8203 13.1308L15.6123 12.9228C15.5334 13.0017 15.4937 13.1015 15.4937 13.2126H15.7879ZM15.8241 13.1268C15.8468 13.1024 15.8698 13.0925 15.9022 13.0925V12.7984C15.7875 12.7984 15.6866 12.8427 15.6086 12.9267L15.8241 13.1268ZM15.9022 13.0925H18.1618V12.7984H15.9022V13.0925ZM18.1618 13.0925C18.1913 13.0925 18.21 13.1011 18.228 13.1207L18.4442 12.9212C18.3693 12.8401 18.2718 12.7984 18.1618 12.7984V13.0925ZM18.2364 13.129C18.2559 13.1471 18.2646 13.1657 18.2646 13.1952H18.5587C18.5587 13.0853 18.5169 12.9878 18.4358 12.9129L18.2364 13.129ZM18.2646 13.1952C18.2646 13.2247 18.2559 13.2433 18.2364 13.2614L18.4358 13.4775C18.5169 13.4027 18.5587 13.3052 18.5587 13.1952H18.2646ZM18.2321 13.2655C18.215 13.2826 18.1952 13.2921 18.1618 13.2921V13.5863C18.2679 13.5863 18.3642 13.5493 18.4401 13.4735L18.2321 13.2655ZM18.1618 13.2921H16.1694V13.5863H18.1618V13.2921ZM16.0224 13.4392V14.7229H16.3165V13.4392H16.0224ZM16.1694 14.87H17.9585V14.5759H16.1694V14.87ZM17.9585 14.87C17.988 14.87 18.0066 14.8786 18.0247 14.8982L18.2409 14.6987C18.166 14.6176 18.0685 14.5759 17.9585 14.5759V14.87ZM18.033 14.9065C18.0526 14.9246 18.0612 14.9432 18.0612 14.9727H18.3554C18.3554 14.8628 18.3136 14.7653 18.2325 14.6904L18.033 14.9065ZM18.0612 14.9727C18.0612 15.0022 18.0526 15.0208 18.033 15.0389L18.2325 15.255C18.3136 15.1802 18.3554 15.0827 18.3554 14.9727H18.0612ZM18.0288 15.043C18.0117 15.0601 17.9919 15.0696 17.9585 15.0696V15.3637C18.0646 15.3637 18.1609 15.3268 18.2368 15.251L18.0288 15.043ZM17.9585 15.0696H16.1694V15.3637H17.9585V15.0696ZM16.0224 15.2167V16.7676H16.3165V15.2167H16.0224ZM16.0224 16.7676C16.0224 16.8001 16.0125 16.8231 15.988 16.8458L16.1882 17.0613C16.2721 16.9833 16.3165 16.8824 16.3165 16.7676H16.0224ZM15.9841 16.8495C15.9624 16.8713 15.9382 16.882 15.9022 16.882V17.1761C16.0133 17.1761 16.1131 17.1365 16.1921 17.0575L15.9841 16.8495Z" fill="white" mask="url(#path-3-outside-1_7527_2999)"/>
<mask id="mask0_7527_2999" style="mask-type:alpha" maskUnits="userSpaceOnUse" x="3" y="2" width="19" height="22">
<path d="M19.545 24H4.45596C3.65186 24 3 23.2964 3 22.4286V3.57143C3 2.70355 3.65186 2 4.45596 2H14.2506L21.001 9.28571V22.4286C21.001 23.2964 20.3491 24 19.545 24Z" fill="url(#paint1_linear_7527_2999)"/>
</mask>
<g mask="url(#mask0_7527_2999)">
<ellipse opacity="0.08" cx="1.18009" cy="1.53578" rx="14.7904" ry="15.3214" fill="url(#paint2_linear_7527_2999)"/>
<ellipse opacity="0.08" cx="1.18061" cy="1.53561" rx="9.29779" ry="9.60714" fill="url(#paint3_linear_7527_2999)"/>
</g>
<g filter="url(#filter0_d_7527_2999)">
<path d="M20.9987 9.28571H15.8667C14.9733 9.28571 14.249 8.56147 14.249 7.66807V2L20.9987 9.28571Z" fill="url(#paint4_linear_7527_2999)"/>
</g>
<defs>
<filter id="filter0_d_7527_2999" x="12.5578" y="0.235294" width="10.4265" height="10.9621" filterUnits="userSpaceOnUse" color-interpolation-filters="sRGB">
<feFlood flood-opacity="0" result="BackgroundImageFix"/>
<feColorMatrix in="SourceAlpha" type="matrix" values="0 0 0 0 0 0 0 0 0 0 0 0 0 0 0 0 0 0 127 0" result="hardAlpha"/>
<feOffset dx="0.147059" dy="0.0735294"/>
<feGaussianBlur stdDeviation="0.919118"/>
<feColorMatrix type="matrix" values="0 0 0 0 0 0 0 0 0 0 0 0 0 0 0 0 0 0 0.33 0"/>
<feBlend mode="normal" in2="BackgroundImageFix" result="effect1_dropShadow_7527_2999"/>
<feBlend mode="normal" in="SourceGraphic" in2="effect1_dropShadow_7527_2999" result="shape"/>
</filter>
<linearGradient id="paint0_linear_7527_2999" x1="12.0005" y1="2" x2="12.0005" y2="24" gradientUnits="userSpaceOnUse">
<stop stop-color="#FF7981"/>
<stop offset="1" stop-color="#E85567"/>
</linearGradient>
<linearGradient id="paint1_linear_7527_2999" x1="12.0005" y1="2" x2="12.0005" y2="24" gradientUnits="userSpaceOnUse">
<stop stop-color="#FF7981"/>
<stop offset="1" stop-color="#E85567"/>
</linearGradient>
<linearGradient id="paint2_linear_7527_2999" x1="2.25398" y1="2.06229" x2="7.37453" y2="14.653" gradientUnits="userSpaceOnUse">
<stop stop-color="white" stop-opacity="0"/>
<stop offset="1" stop-color="white"/>
</linearGradient>
<linearGradient id="paint3_linear_7527_2999" x1="1.85569" y1="1.86575" x2="5.06064" y2="9.76632" gradientUnits="userSpaceOnUse">
<stop stop-color="white" stop-opacity="0"/>
<stop offset="1" stop-color="white"/>
</linearGradient>
<linearGradient id="paint4_linear_7527_2999" x1="17.6238" y1="2" x2="17.6238" y2="9.28571" gradientUnits="userSpaceOnUse">
<stop stop-color="#D03954"/>
<stop offset="1" stop-color="#C02A3C"/>
</linearGradient>
</defs>
</svg>
